<svg width="1200" height="630" viewBox="0 0 1200 630" xmlns="http://www.w3.org/2000/svg">
  <defs>
    <linearGradient id="bg" x1="0" y1="0" x2="1" y2="1">
      <stop offset="0%" stop-color="#fff7ed"/>
      <stop offset="100%" stop-color="#ffffff"/>
    </linearGradient>
    <linearGradient id="orange" x1="0" y1="0" x2="1" y2="1">
      <stop offset="0%" stop-color="#fb923c"/>
      <stop offset="100%" stop-color="#f97316"/>
    </linearGradient>
    <mask id="bite">
      <rect width="64" height="64" fill="white"/>
      <circle cx="58" cy="10" r="13" fill="black"/>
    </mask>
  </defs>

  <rect width="1200" height="630" fill="url(#bg)"/>
  <circle cx="1080" cy="120" r="260" fill="#ffedd5" opacity="0.6"/>

  <g transform="translate(96,150)">
    <g transform="scale(1.7)">
      <g mask="url(#bite)">
        <circle cx="30" cy="34" r="26" fill="url(#orange)"/>
        <circle cx="30" cy="34" r="20" fill="#ffedd5"/>
        <g stroke="#fb923c" stroke-width="2.4" stroke-linecap="round">
          <line x1="30" y1="34" x2="30" y2="14"/>
          <line x1="30" y1="34" x2="30" y2="54"/>
          <line x1="30" y1="34" x2="10" y2="34"/>
          <line x1="30" y1="34" x2="50" y2="34"/>
          <line x1="30" y1="34" x2="44.5" y2="19.5"/>
          <line x1="30" y1="34" x2="15.5" y2="48.5"/>
          <line x1="30" y1="34" x2="15.5" y2="19.5"/>
          <line x1="30" y1="34" x2="44.5" y2="48.5"/>
        </g>
        <circle cx="30" cy="34" r="3.4" fill="#f97316"/>
      </g>
    </g>
    <text x="130" y="95" font-family="Inter, Arial, sans-serif" font-size="86" font-weight="900" fill="#111827">SLICE</text>
  </g>

  <text x="96" y="380" font-family="Inter, Arial, sans-serif" font-size="64" font-weight="800" fill="#0f172a">Reducing your debt</text>
  <text x="96" y="456" font-family="Inter, Arial, sans-serif" font-size="64" font-weight="800" fill="#f97316">one bite at a time.</text>

  <text x="96" y="540" font-family="Inter, Arial, sans-serif" font-size="32" font-weight="600" fill="#5b6472">Organize creditors · Calculate settlements · Negotiate with AI · Coaching</text>
</svg>
